<?xml version="1.0" encoding="UTF-8"?>
<svg width="639.13" height="441.59" xmlns="http://www.w3.org/2000/svg">
 <title>greyHat</title>

 <metadata id="metadata9845">image/svg+xml</metadata>
 <g>
  <title>Layer 1</title>
  <g id="layer1">
   <g transform="matrix(5.50712 0 0 5.50712 -1052 -2439.67)" id="g9835">
    <path fill="#bfbfbf" fill-opacity="0.991667" fill-rule="evenodd" stroke="#000000" stroke-width="2.379959" stroke-linejoin="round" d="m213.225815,473.772125c0.17337,-0.77179 -1.183258,10.409851 -0.923248,7.987152c1.71907,-9.497833 0.997467,-19.79129 4.823654,-28.826508c0.95343,-1.993896 2.166901,-3.25882 3.727066,-3.173096c22.188995,0.686096 45.071396,-22.297272 61.71312,28.814972c51.312103,24.012482 3.567902,43.308228 -37.053848,41.593079c-40.139816,-1.680481 -74.411179,-30.615936 -32.286743,-46.395599z" id="path575"/>
    <path fill="#bfbfbf" fill-rule="evenodd" stroke="#000000" stroke-width="1.18998" d="m212.185715,480.632843c25.656021,16.122681 67.953781,6.174683 69.687302,-1.715149c2.426941,2.744263 0,10.291077 0,10.291077c-11.094482,14.407471 -64.833481,11.320099 -70.727432,1.029114c-0.69339,-2.744354 0.69342,-8.575928 1.040131,-9.605042z" id="path576"/>
    <path fill="#bfbfbf" fill-opacity="0.316667" fill-rule="evenodd" stroke="#000000" stroke-width="0.44703722pt" d="m217.238998,483.602692c4.160446,2.058228 16.095596,5.159637 20.949448,5.502686c3.467041,2.401245 1.733521,6.621033 0.34671,9.365356c-9.360992,0 -20.108795,-2.401245 -22.882416,-5.488586c-1.733521,-3.087372 -0.147263,-6.292175 1.586258,-9.379456z" id="path590"/>
   </g>
  </g>
 </g>
</svg>